<?xml version="1.0" encoding="UTF-8"?>
<svg id="Capa_2" data-name="Capa 2" xmlns="http://www.w3.org/2000/svg" viewBox="0 0 459.04 512">
  <defs>
    <style>
      .cls-1 {
        fill: #fff;
        stroke-width: 0px;
      }
    </style>
  </defs>
  <g id="Capa_1-2" data-name="Capa 1">
    <g>
      <path class="cls-1" d="M319.37,512c-10.07-3.82-17.02-10.24-19.21-21.39-3.06-15.61,5.51-28.56,21.26-31.54,14.15-2.68,28.28-5.49,42.84-8.33-7.34-37.66-14.63-75.06-21.91-112.45-27.16-2.06-45.51-17.86-60.73-38.09-20.94-27.83-31.95-59.86-37.94-93.83-5.47-31.07-7.97-62.4-7.05-93.94.44-15.12,1.74-30.23,2.9-45.32.51-6.63,3.3-9.57,9.7-10.83,20.98-4.14,41.98-8.16,62.97-12.25,9.6-1.87,19.19-3.77,28.78-5.69,8.41-1.68,11.72-.18,15.81,7.44,23.08,43.03,39.54,88.52,48.9,136.42,6.85,35.05,7.25,70.15-4.59,104.48-5.8,16.81-14.53,31.76-29.48,42.21-2.84,1.99-5.97,3.56-9.34,5.54,7.26,37.26,14.56,74.68,21.91,112.41,14.68-2.89,28.8-5.65,42.9-8.46,14.11-2.82,25.91,3.8,30.25,17.04,4.6,14.03-.33,27.91-12.8,32.75-7.63,2.96-16.01,4.11-24.12,5.71-29.6,5.85-59.22,11.55-88.83,17.33-.45.09-.83.51-1.25.77h-10.98ZM258.85,75.21c-3.36,39.42-2.92,78.33,3.12,117.17h125.02c-8.61-47.04-24.38-91.01-46.06-133.22-27.47,5.37-54.72,10.7-82.08,16.05ZM265.7,213.14c5.44,24.38,13.75,47.34,27.49,68.09,7.68,11.59,16.39,22.2,28.36,29.71,18.02,11.32,35.19,8.5,48.39-8.19,2.36-2.98,4.45-6.24,6.24-9.6,8.37-15.68,11.85-32.74,12.98-50.25.64-9.85.11-19.78.11-29.77h-123.58ZM325.36,491.76c6.19-1.21,12.52-2.47,18.85-3.7,29.57-5.75,59.15-11.48,88.71-17.27,5.26-1.03,6.56-2.89,5.57-7.35-1.12-5.05-2.67-5.91-8.19-4.84-26.48,5.15-52.97,10.27-79.46,15.41-8.78,1.7-17.56,3.37-26.32,5.14-3.45.7-5.03,2.74-4.49,6.46.47,3.24,1.35,5.86,5.33,6.15Z"/>
      <path class="cls-1" d="M128.74,512c-11.16-2.35-22.29-4.8-33.47-7.01-24.56-4.86-49.16-9.48-73.7-14.42-13.01-2.62-21.2-11.77-21.54-23.3-.43-14.48,6.64-26.31,19.13-28.38,7.55-1.25,15.73.57,23.51,1.78,10.61,1.64,21.1,4,32.2,6.16,6.97-37.62,13.89-74.96,20.81-112.31-28.57-14.54-38.92-40.79-44.58-69.61-6.36-32.38-3.45-64.56,4.01-96.49,9.99-42.78,25.16-83.58,45.83-122.33,4.31-8.08,7.45-9.38,16.62-7.57,29.93,5.91,59.87,11.74,89.82,17.54,7.79,1.51,10.29,4.37,11.24,12.21,3.52,29.22,3.9,58.53,1.73,87.8-2.65,35.72-7.46,71.12-21.76,104.43-10.35,24.11-23.56,46.28-44.64,62.72-12.32,9.61-21.4,13.07-38.32,15.15-6.9,37.18-13.83,74.52-20.84,112.32,14.07,2.79,27.99,5.62,41.95,8.28,13.38,2.55,21.98,10.97,22.89,22.67,1.09,14.06-5.58,24.5-18.78,29.46-.42.16-.74.59-1.1.89h-10.98ZM199.3,75.26c-27.78-5.43-55.04-10.77-82.52-16.14-25.53,51.72-45.02,104.79-48.95,163.24h6.63c36.41,0,72.82-.13,109.23.14,5.22.04,6.99-1.52,8.03-6.5,7.33-35.03,10.09-70.44,9.22-106.15-.28-11.46-1.07-22.91-1.64-34.59ZM68.43,243.07c.86,6.26,1.42,12.03,2.46,17.72,2.71,14.67,7.3,28.63,16.16,40.89,12.23,16.94,30.65,21.01,47.97,9.61,7.4-4.87,14.26-10.97,20.2-17.56,13.15-14.59,21.53-32.07,28.45-50.66h-115.24ZM25.74,457.98c-4.11.04-4.73,3.14-5.27,6.39-.75,4.56,2.21,5.76,5.72,6.44,34.93,6.79,69.88,13.51,104.79,20.4,4.39.87,7.11.2,7.91-4.66.84-5.11-.18-6.53-5.77-7.62-26.64-5.22-53.27-10.47-79.91-15.68-9.1-1.78-18.2-3.5-27.47-5.27Z"/>
      <path class="cls-1" d="M230.54,0c5.44,2.93,7.31,7.49,7.07,13.6-.35,8.79-.07,17.61-.1,26.42-.02,7.86-3.98,12.83-10.13,12.77-6.16-.06-9.89-4.88-9.93-12.91-.03-8.81.23-17.63-.09-26.42-.22-6.1,1.56-10.7,7.19-13.46h5.99Z"/>
      <path class="cls-1" d="M193.18,42.88c-1.33-1.03-4.62-2.59-6.44-5.18-4.37-6.22-8.2-12.84-11.97-19.45-3.15-5.53-1.74-11.47,3.02-14.39,4.91-3.01,10.55-1.67,14.13,3.84,4.15,6.38,8.17,12.87,11.83,19.55,4.08,7.44-.68,15.86-10.57,15.64Z"/>
      <path class="cls-1" d="M263.15,42.89c-8.15.15-13.91-6.96-10.98-12.95,4.13-8.46,9.25-16.5,14.55-24.3,2.69-3.96,8.13-4.26,12.17-1.89,4.09,2.4,6.49,7.78,4.2,12.08-4.37,8.19-9.3,16.11-14.47,23.82-1.28,1.91-4.35,2.62-5.46,3.25Z"/>
      <path class="cls-1" d="M366.4,158.83c-1.05,5.31-3.92,9.11-8.52,10.19-5.02,1.19-9.73-.68-11.41-5.56-4.56-13.33-8.84-26.76-12.88-40.25-1.31-4.37,1.82-9.24,5.97-10.9,4.49-1.8,10.5-.58,12.16,3.84,5.29,14.08,9.84,28.44,14.67,42.69Z"/>
      <path class="cls-1" d="M338.35,84.82c-.11,5.45-5.07,10.22-10.34,9.94-5.26-.28-9.63-4.91-9.63-10.19,0-5.52,4.72-10.25,10.12-10.16,5.49.1,9.96,4.81,9.85,10.4Z"/>
      <path class="cls-1" d="M189,131.28c-.75,10.96-1.35,21.94-2.29,32.88-.57,6.64-4.82,10.42-10.64,10.09-5.68-.32-9.48-4.76-9.35-11.37.37-19.64.82-39.28,1.32-58.92.12-4.7,1.41-8.88,6.25-10.99,3.75-1.63,7.7-1.41,10.14,1.56,2.14,2.61,3.72,6.37,3.92,9.73.53,8.97.18,17.99.18,26.98l.48.03Z"/>
      <path class="cls-1" d="M170.85,214.02c-5.47-.09-10.19-4.99-9.94-10.32.24-5.28,4.83-9.66,10.12-9.68,5.54-.02,10.21,4.63,10.14,10.11-.07,5.53-4.72,9.99-10.32,9.89Z"/>
    </g>
  </g>
</svg>