<?xml version="1.0" encoding="UTF-8"?>
<svg id="Capa_2" data-name="Capa 2" xmlns="http://www.w3.org/2000/svg" viewBox="0 0 321.08 384">
  <defs>
    <style>
      .cls-1 {
        fill: #284b67;
        stroke-width: 0px;
      }
    </style>
  </defs>
  <g id="Capa_1-2" data-name="Capa 1">
    <g>
      <path class="cls-1" d="M121.48,0h78.01c5.38,2.8,7.41,7.24,6.85,13.22-.31,3.34.15,6.76-.12,10.11-.23,2.82.95,4.13,3.33,5.42,16.26,8.76,32.37,17.78,48.62,26.57,31.59,17.1,48.26,44.2,53.07,79.15,2.21,16.07,4.12,32.2,5.78,48.34,1.57,15.26,3.31,30.56,3.73,45.87.63,22.84.16,45.72.16,68.58,0,15.74.01,31.48,0,47.22,0,5.1-1.73,8.21-5.85,9.34-2.34.64-2.51,1.84-2.48,3.73.07,5-.17,10,.08,14.99.25,5.08-1.24,9.01-5.89,11.45H14.21c-4.68-2.42-6.11-6.38-5.9-11.45.25-5.97.06-11.95.06-17.8-6.8-2.3-8.32-4.41-8.32-11.34,0-22.99-.15-45.98.04-68.97.22-27.71-1.24-55.45,2.77-83.06,2.99-20.63,4.47-41.48,7.79-62.05,5.22-32.3,21.8-57.23,50.87-73.22,13.67-7.52,27.36-15,41.03-22.52,3.93-2.16,9.34-3.52,11.3-6.86,2.03-3.48,1.07-8.94.75-13.49-.42-6,1.51-10.41,6.88-13.22ZM58.46,371.74c.79.1,1.39.25,1.98.25,22.63,0,45.25.03,67.88-.02,4.96,0,8.59-2.38,10.74-6.85,2.54-5.29,4.62-10.83,7.54-15.89,6.3-10.91,9.24-22.39,7.97-35.03-.49-4.82,1.99-7.45,5.82-7.51,3.85-.06,6.51,2.62,6,7.32-1.38,12.93,1.81,24.61,8.23,35.72,2.36,4.09,4.29,8.47,6.03,12.88,2.7,6.84,7.51,9.6,14.82,9.53,21-.22,42-.08,63-.08h3.83c-.08-.83-.08-1.32-.17-1.79-4.77-24.38-9.65-48.73-14.3-73.13-2.94-15.43-7.31-30.73-6.34-46.64.74-12.21,2.22-24.37,3.38-36.56,1.99-20.88,5.06-41.64,5.01-62.72-.03-14.87,1.63-29.67,5.09-44.21,2.59-10.87,6.61-21.13,13.58-31.15-10.34-6.17-20.33-12.13-30.03-17.92-4.52,6.47-5.29,12.24-.15,18.17,4.29,4.96,3.54,10.17.61,15.94-21.71,42.73-42.95,85.7-64.86,128.33-5.34,10.38-9.2,20.6-7.67,32.36.05.37.02.75,0,1.12-.18,3.93-2.41,6.37-5.85,6.45-3.64.08-6.03-2.39-6.12-6.53-.09-4.25.27-8.53-.12-12.74-.3-3.24-.88-6.69-2.3-9.56-11.17-22.6-22.57-45.1-33.91-67.62-12.34-24.53-24.66-49.07-37.07-73.56-2.24-4.41-2.46-8.47.38-12.69,1.74-2.58,3.22-5.35,4.69-8.1.43-.79.82-1.98.54-2.71-1.16-2.94-2.6-5.77-3.99-8.77-10.15,5.82-20.88,10.63-29.72,18.35,2.03,3.61,4.03,6.78,5.68,10.12,8.12,16.47,11.1,34.25,11.63,52.27.88,30.52,4.2,60.78,7.37,91.09,1.16,11.13,2.42,22.6,1.01,33.58-2.6,20.27-7.08,40.3-10.88,60.41-3.02,15.93-6.2,31.84-9.33,47.91ZM43.89,84.77c-1.04,1.2-1.95,2.2-2.8,3.24-11.17,13.66-16.9,29.64-19.3,46.83-2.3,16.44-4.12,32.96-5.95,49.46-1.4,12.65-3.39,25.33-3.54,38.02-.47,38.61-.17,77.22-.16,115.84,0,1.31.12,2.63.2,4.25h37.63c0-1.6-.02-3.31,0-5.03.42-33.49.61-66.98,1.41-100.46.27-11.57,1.8-23.13,3.22-34.63,1.29-10.52,4.2-20.93,4.61-31.46.74-18.85-.15-37.74-3.81-56.34-2.06-10.45-5.18-20.54-11.5-29.71ZM276.68,84.42c-2.43,5.13-4.86,9.5-6.61,14.13-5.97,15.74-7.57,32.31-8.05,48.93-.32,10.81-.54,21.83,1.12,32.45,3.87,24.83,7.32,49.57,7.05,74.83-.3,27.73.59,55.47.96,83.21.02,1.47,0,2.94,0,4.31h37.76c0-1.5,0-2.49,0-3.48,0-38.36,0-76.72-.02-115.08,0-2.62-.1-5.25-.38-7.86-1.85-17.13-3.59-34.28-5.7-51.37-1.68-13.62-3.28-27.29-5.95-40.73-2.88-14.53-9.45-27.54-20.17-39.34ZM175.61,189.54c.16.1.32.2.48.3.71-1.3,1.45-2.58,2.11-3.9,15.31-30.44,30.28-61.06,46.16-91.2,4.15-7.87,4.62-13.86-.9-20.72-3.53-4.39-3.31-9.1.39-13.69,2.93-3.63,2.1-8.65-1.88-11.07-5.2-3.17-10.66-5.91-16.41-9.05-10.04,50.04-20,99.69-29.96,149.34ZM144.91,189.9c.16-.06.31-.13.47-.19-9.97-49.7-19.94-99.41-29.98-149.46-5.2,2.83-9.91,5.38-14.6,7.96-5.96,3.28-6.92,7.55-2.92,13.19,2.5,3.52,2.74,7.16.69,10.9-1.62,2.96-3.21,5.95-5.12,8.71-1.54,2.23-1.52,4.02-.29,6.44,16.69,32.95,33.26,65.95,49.87,98.94.6,1.18,1.26,2.33,1.88,3.5ZM194.27,12.32h-67.59c0,4.69-.13,9.06.09,13.43.05,1.06,1.02,2.53,1.97,3.02,8.75,4.55,17.42,9.3,26.48,13.13,3.09,1.3,7.67,1.23,10.78-.08,8.95-3.79,17.51-8.49,26.16-12.96.91-.47,1.97-1.73,2.01-2.66.21-4.59.09-9.19.09-13.88ZM160.09,201.8c.23,0,.45,0,.68,0,.16-.54.37-1.07.48-1.62,1.98-9.77,4.17-19.51,5.84-29.34,1.1-6.45,2.49-13.12,1.95-19.53-1.64-19.51-4.16-38.94-6.35-58.4-.58-5.18-1.22-10.36-1.84-15.54-.82.52-.97.98-1.03,1.46-2.24,19.96-4.44,39.92-6.73,59.87-1.2,10.53-2.8,21,.53,31.49,1.27,4.01,1.68,8.3,2.52,12.45,1.29,6.39,2.62,12.77,3.93,19.16ZM20.68,354.79v16.9h24.22v-16.9h-24.22ZM276.19,354.76v17.02h24.17v-17.02h-24.17ZM142.8,115.65l.9-.12c1.77-15.63,3.55-31.26,5.25-46.89.12-1.07-.44-2.21-.8-3.87-6.41,5.71-11.42,4.18-15.9-1.71,3.52,17.53,7.03,35.06,10.55,52.59ZM188.88,62.43q-8.11,7.25-15.67,2.93c-1.51,2.12,2.88,46.92,5.02,50.24,3.55-17.74,7.07-35.32,10.65-53.17ZM160.47,347.73c-4.02,8.61-7.59,16.24-11.23,24.03h22.51c-3.73-7.94-7.3-15.55-11.28-24.03ZM63.28,283.22c6.28-19.78,4.6-41.27,1.08-62.79-.36,0-.72,0-1.08,0v62.8ZM257.52,220.96c-.38.03-.77.06-1.15.08-3.12,20.83-5.07,41.62,1.15,61.32v-61.4ZM145.9,50.88c-3.5-1.68-6.33-3.04-9.17-4.4-.13.22-.27.44-.4.66,1.73,2.33,3.46,4.66,5.33,7.19,1.43-1.16,2.55-2.07,4.24-3.45ZM179.37,54.27c1.88-2.54,3.61-4.88,5.33-7.21-.18-.22-.36-.43-.54-.65-2.87,1.46-5.73,2.93-8.96,4.57,1.63,1.29,2.77,2.19,4.16,3.28Z"/>
      <path class="cls-1" d="M103.02,315.43c5.37,0,10.75-.05,16.12.02,4.33.06,6.79,2.18,6.89,5.74.1,3.7-2.41,6.15-6.88,6.19-10.75.1-21.49.1-32.24,0-4.5-.04-6.97-2.44-6.87-6.18.09-3.6,2.5-5.69,6.86-5.75,5.37-.07,10.75-.02,16.12-.02Z"/>
      <path class="cls-1" d="M217.91,315.43c5.37,0,10.75-.05,16.12.01,4.39.05,6.82,2.1,6.98,5.65.16,3.72-2.34,6.23-6.78,6.27-10.87.11-21.75.11-32.62-.01-4.21-.05-6.68-2.54-6.64-6.07.05-3.52,2.58-5.78,6.81-5.84,5.37-.08,10.75-.02,16.12-.02Z"/>
      <path class="cls-1" d="M166.48,283.34c0,3.62.08,7.25-.02,10.87-.11,3.75-2.66,6.39-5.97,6.39-3.31,0-5.92-2.64-5.97-6.38-.1-7.24-.1-14.49,0-21.73.05-3.88,2.48-6.29,5.96-6.3,3.47,0,5.86,2.41,5.98,6.29.11,3.62.02,7.24.02,10.87Z"/>
    </g>
  </g>
</svg>