<?xml version="1.0" encoding="UTF-8"?>
<svg id="Capa_2" data-name="Capa 2" xmlns="http://www.w3.org/2000/svg" viewBox="0 0 311.65 372.31">
  <defs>
    <style>
      .cls-1 {
        fill: #284b67;
        stroke-width: 0px;
      }
    </style>
  </defs>
  <g id="Capa_1-2" data-name="Capa 1">
    <g>
      <path class="cls-1" d="M155.91,14.41C170.14-.27,186.77-2.95,205.33,3c1.77.57,3.44,1.44,5.12,2.25,3.88,1.89,5.6,4.84,5.32,9.34-.89,14.16-5.27,27.38-10.21,40.5-4.3,11.43-8.47,22.91-12.51,34.44-.41,1.16,0,3.49.83,4.05,12.7,8.45,20.14,20.93,26.36,34.3,9.62,20.68,15.47,42.66,21.66,64.5,7.92,27.97,15.39,56.08,26.23,83.11,8.78,21.89,19.33,42.77,34.78,60.82,1.87,2.18,3.85,4.26,5.82,6.35,3.87,4.13,3.95,6.88-.09,10.94-9.67,9.71-21.33,13.07-34.28,8.72-10-3.36-18.45-2.37-27.08,3.8-11.79,8.43-27.25,8.05-39.4-.02-12.5-8.3-19.81-8.3-32.25.02-12.52,8.37-27.92,8.19-40.67-.81-6.76-4.76-13.93-6.66-21.89-4.23-2.68.82-5.26,2.3-7.6,3.9-13.72,9.41-29.1,9.69-42.62.19-7.59-5.34-15.34-6.36-24.03-3.24-13.43,4.82-27.63,1.15-36.54-9.07-2.92-3.35-3.14-6.23-.16-9.28,20.51-20.98,33.91-46.36,43.35-73.65,9.74-28.15,17.85-56.87,26.44-85.41,6.44-21.39,12.23-42.99,22.59-62.95,5.69-10.97,12.67-20.91,23.19-27.95.86-.58,1.34-2.88.94-4.01-3.86-11.06-7.84-22.08-11.98-33.04-4.64-12.28-8.92-24.63-10.43-37.78-1.09-9.5.36-12.54,9.3-15.54,18.2-6.1,34.92-4.14,49.05,10.06.34.34.74.62,1.31,1.09ZM296.81,347.67c-1.56-1.84-2.94-3.44-4.29-5.07-18.4-22.09-30.87-47.53-39.87-74.52-9.31-27.91-17.22-56.28-25.65-84.48-5.57-18.65-10.81-37.42-19.56-54.91-4.61-9.22-10.08-17.82-18.6-24.06-2.12-1.55-3.96-1.84-6.5-.99-17.86,6-35.74,5.77-53.64-.02-1.49-.48-3.73-.19-5.05.64-7.24,4.61-12.17,11.39-16.33,18.72-9,15.85-14.41,33.12-19.62,50.46-9.48,31.53-18.39,63.25-28.63,94.53-8.3,25.35-20.01,49.24-36.53,70.47-2.43,3.13-5.02,6.14-7.61,9.29.67.51,1.15.91,1.66,1.26,6.77,4.53,13.77,3.06,20.84.83,11.06-3.48,21.42-1.97,30.98,4.66,10.91,7.57,20.06,7.6,31.07.05,12.78-8.75,28.2-8.71,41.01.1,10.94,7.52,19.83,7.53,30.72.02,12.79-8.82,28.27-8.87,41.01-.14,11.32,7.76,19.93,7.69,31.31-.19,8.59-5.95,18.01-7.63,28.15-5.28,3.03.7,5.98,1.78,9.02,2.43,5.78,1.24,11.13.29,16.15-3.8ZM155.78,96.79c7.41-1.43,14.47-2.81,21.54-4.15,2.09-.4,2.9-1.58,3.54-3.67,2.58-8.45,5.19-16.92,8.35-25.16,5.68-14.77,12.02-29.29,14.2-45.18.4-2.94-.55-3.88-3.1-4.69-15.32-4.89-27.39-1.29-38,11.5-5.15,6.21-7.87,6.23-12.91.07-10.62-12.99-23.44-16.69-38.67-11.35-2.16.76-3.08,1.71-2.5,4.02,1.96,7.85,3.34,15.88,5.87,23.54,5.39,16.31,11.33,32.43,17.16,48.59.33.92,1.66,1.88,2.68,2.1,7.27,1.57,14.58,2.95,21.84,4.38Z"/>
      <path class="cls-1" d="M73.36,330.11c-6.18-.16-8.56-4.73-6.41-9.36,3.42-7.35,7.13-14.58,10.17-22.08,7.95-19.58,11.88-40.18,14.28-61.06,3.35-29.05,6.91-58.03,15.73-86.06,2.13-6.78,4.4-13.52,6.71-20.24,1.45-4.22,4.51-6.05,7.84-4.93,3.58,1.2,4.97,4.57,3.41,8.91-9.5,26.29-15.63,53.35-19.18,81.07-2.46,19.18-5.08,38.37-8.67,57.36-3.47,18.36-10.49,35.64-19.48,52.03-1.12,2.04-3.43,3.42-4.41,4.35Z"/>
      <path class="cls-1" d="M192.01,126.07c2.94.12,4.9,1.96,5.78,5.04,4.76,16.66,10.55,33.11,13.98,50.04,4.12,20.4,6.38,41.18,9.16,61.84,3.61,26.8,10.21,52.65,23.16,76.6.8,1.49,1.89,3.59,1.4,4.83-.82,2.07-2.48,4.43-4.4,5.3-2.77,1.26-5.45-.33-6.76-3.14-4.26-9.15-8.82-18.2-12.47-27.6-8.19-21.11-11.94-43.3-14.22-65.69-3.4-33.42-9.38-66.22-21-97.84-1.88-5.11.45-9.25,5.37-9.39Z"/>
      <path class="cls-1" d="M197.79,323.85c-.33,3.38-1.92,5.43-4.96,6.12-2.95.67-5.88-1.11-6.86-4.43-1.91-6.46-3.74-12.95-5.36-19.49-7.06-28.5-9.82-57.56-11.36-86.81-1.19-22.7-2.82-45.38-4.48-68.05-.41-5.58-1.68-11.1-2.62-16.65-.75-4.43,1.09-7.68,4.79-8.32,3.44-.59,6.14,1.77,6.96,6.15,4.16,22.16,6.09,44.53,6.67,67.06.95,36.27,3.44,72.39,12.67,107.7,1.23,4.71,2.58,9.38,3.87,14.08.26.96.49,1.92.67,2.63Z"/>
      <path class="cls-1" d="M120.26,330.07c-4.72-.06-6.98-3.82-5.82-8.61,3.16-13.09,6.6-26.12,9.25-39.32,4.22-20.98,5.49-42.32,6.73-63.65,1.32-22.81,2.83-45.6,4.53-68.39.45-6.07,1.82-12.09,2.89-18.11.72-4.04,3.51-6.03,7.12-5.34,3.31.63,5.08,3.61,4.65,7.37-2.1,18.09-4.6,36.16-6.05,54.3-1.46,18.17-1.54,36.45-2.77,54.64-1.9,27.86-6.76,55.22-14.89,81.97-.93,3.08-2.77,4.94-5.64,5.12Z"/>
    </g>
  </g>
</svg>